<svg xmlns="http://www.w3.org/2000/svg" viewBox="0 0 390 844" width="390" height="844">
  <rect width="390" height="844" fill="#F7F3EC"/>

  <!-- header -->
  <text x="24" y="48" font-family="'Geist', system-ui, sans-serif" font-size="22" fill="#161513">←</text>
  <text x="195" y="46" text-anchor="middle" font-family="'Instrument Serif', Georgia, serif" font-style="italic" font-size="24" fill="#161513">pick a vibe</text>
  <line x1="0" y1="84" x2="390" y2="84" stroke="#E6DFD2"/>

  <!-- search -->
  <rect x="24" y="106" width="342" height="48" rx="24" fill="#FFFFFF" stroke="#E6DFD2"/>
  <text x="48" y="136" font-family="'Geist', system-ui, sans-serif" font-size="14" fill="#807972">search a vibe...</text>

  <!-- mood -->
  <text x="24" y="194" font-family="'Geist', system-ui, sans-serif" font-size="12" letter-spacing="2" fill="#807972">MOOD</text>
  <g font-family="'Geist', system-ui, sans-serif" font-size="14">
    <g transform="translate(24,206)">
      <rect width="78" height="38" rx="19" fill="#161513"/>
      <text x="39" y="24" text-anchor="middle" fill="#F7F3EC">chill</text>
    </g>
    <g transform="translate(110,206)">
      <rect width="78" height="38" rx="19" fill="none" stroke="#161513" stroke-width="1.2"/>
      <text x="39" y="24" text-anchor="middle" fill="#161513">vent</text>
    </g>
    <g transform="translate(196,206)">
      <rect width="98" height="38" rx="19" fill="#161513"/>
      <text x="49" y="24" text-anchor="middle" fill="#F7F3EC">latenite</text>
    </g>
    <g transform="translate(302,206)">
      <rect width="64" height="38" rx="19" fill="none" stroke="#161513" stroke-width="1.2"/>
      <text x="32" y="24" text-anchor="middle" fill="#807972">+</text>
    </g>
    <g transform="translate(24,254)">
      <rect width="70" height="38" rx="19" fill="none" stroke="#161513" stroke-width="1.2"/>
      <text x="35" y="24" text-anchor="middle" fill="#161513">sad</text>
    </g>
    <g transform="translate(102,254)">
      <rect width="100" height="38" rx="19" fill="none" stroke="#161513" stroke-width="1.2"/>
      <text x="50" y="24" text-anchor="middle" fill="#161513">bored-af</text>
    </g>
    <g transform="translate(210,254)">
      <rect width="84" height="38" rx="19" fill="none" stroke="#161513" stroke-width="1.2"/>
      <text x="42" y="24" text-anchor="middle" fill="#161513">hyped</text>
    </g>
  </g>

  <!-- spice -->
  <text x="24" y="332" font-family="'Geist', system-ui, sans-serif" font-size="12" letter-spacing="2" fill="#807972">SPICE LEVEL</text>
  <g font-family="'Geist', system-ui, sans-serif" font-size="14">
    <g transform="translate(24,344)">
      <rect width="106" height="38" rx="19" fill="none" stroke="#161513" stroke-width="1.2"/>
      <text x="53" y="24" text-anchor="middle" fill="#161513">wholesome</text>
    </g>
    <g transform="translate(138,344)">
      <rect width="76" height="38" rx="19" fill="#161513"/>
      <text x="38" y="24" text-anchor="middle" fill="#F7F3EC">flirty</text>
    </g>
    <g transform="translate(222,344)">
      <rect width="86" height="38" rx="19" fill="none" stroke="#807972" stroke-width="1" stroke-dasharray="3 3"/>
      <g transform="translate(16,12)" fill="none" stroke="#807972" stroke-width="1.3" stroke-linecap="round" stroke-linejoin="round">
        <path d="M2,7 v-3 a3,3 0 0 1 6,0 v3"/>
        <rect x="0" y="7" width="10" height="8" rx="1"/>
      </g>
      <text x="56" y="24" text-anchor="middle" fill="#807972">spicy</text>
    </g>
    <g transform="translate(316,344)">
      <rect width="78" height="38" rx="19" fill="none" stroke="#807972" stroke-width="1" stroke-dasharray="3 3"/>
      <g transform="translate(14,12)" fill="none" stroke="#807972" stroke-width="1.3" stroke-linecap="round" stroke-linejoin="round">
        <path d="M2,7 v-3 a3,3 0 0 1 6,0 v3"/>
        <rect x="0" y="7" width="10" height="8" rx="1"/>
      </g>
      <text x="52" y="24" text-anchor="middle" fill="#807972">nsfw</text>
    </g>
  </g>
  <text x="24" y="406" font-family="'Geist', system-ui, sans-serif" font-size="11" fill="#807972">locked — verify your age in profile to unlock</text>

  <!-- topic -->
  <text x="24" y="446" font-family="'Geist', system-ui, sans-serif" font-size="12" letter-spacing="2" fill="#807972">TOPIC</text>
  <g font-family="'Geist', system-ui, sans-serif" font-size="14">
    <g transform="translate(24,458)">
      <rect width="92" height="38" rx="19" fill="none" stroke="#161513" stroke-width="1.2"/>
      <text x="46" y="24" text-anchor="middle" fill="#161513">gaming</text>
    </g>
    <g transform="translate(124,458)">
      <rect width="82" height="38" rx="19" fill="none" stroke="#161513" stroke-width="1.2"/>
      <text x="41" y="24" text-anchor="middle" fill="#161513">music</text>
    </g>
    <g transform="translate(214,458)">
      <rect width="118" height="38" rx="19" fill="none" stroke="#161513" stroke-width="1.2"/>
      <text x="59" y="24" text-anchor="middle" fill="#161513">philosophy</text>
    </g>
    <g transform="translate(24,506)">
      <rect width="86" height="38" rx="19" fill="none" stroke="#161513" stroke-width="1.2"/>
      <text x="43" y="24" text-anchor="middle" fill="#161513">anime</text>
    </g>
    <g transform="translate(118,506)">
      <rect width="112" height="38" rx="19" fill="none" stroke="#161513" stroke-width="1.2"/>
      <text x="56" y="24" text-anchor="middle" fill="#161513">bookworm</text>
    </g>
    <g transform="translate(238,506)">
      <rect width="114" height="38" rx="19" fill="none" stroke="#161513" stroke-width="1.2"/>
      <text x="57" y="24" text-anchor="middle" fill="#161513">heartbreak</text>
    </g>
  </g>

  <!-- footer -->
  <line x1="0" y1="700" x2="390" y2="700" stroke="#E6DFD2"/>
  <text x="32" y="734" font-family="'Geist', system-ui, sans-serif" font-size="13" fill="#807972">3 of 5 picked</text>
  <text x="358" y="734" text-anchor="end" font-family="'Geist', system-ui, sans-serif" font-size="13" fill="#161513" font-weight="600">412 people online</text>

  <rect x="32" y="754" width="326" height="60" rx="30" fill="#FF4F1F"/>
  <text x="195" y="792" text-anchor="middle" font-family="'Geist', system-ui, sans-serif" font-size="17" font-weight="600" fill="#FFFFFF">find someone now</text>
</svg>
